<?xml version="1.0" encoding="UTF-8"?>
<svg fill="#682079" width="128pt" height="128pt" version="1.1" viewBox="0 0 128 128" version="1.1" xmlns="http://www.w3.org/2000/svg">
 <path d="m106.7491 14.5308h-84.8755c-10.2235 0-18.5844 8.3613-18.5844 18.5844v56.6099c0 10.2188 8.3613 18.5844 18.5844 18.5844h4.7265v9.231c0 2.8312 3.1101 4.5658 5.5301 3.0817l19.8985-12.313h54.7331c10.2235 0 18.5844-8.3661 18.5844-18.5844v-56.6099c0-10.2235-8.3613-18.5844-18.5844-18.5844zm-15.1008 7.5247c1.9946 0 3.6064 1.607 3.6064 3.6111 0 1.9946-1.607 3.6064-3.6064 3.6064-1.9946 0-3.6111-1.607-3.6111-3.6064 0-2.004 1.6164-3.6111 3.6111-3.6111zm-49.5483 67.5325c-.4774.5577-1.1155 1.0351-1.8292 1.3801-.7279.3498-1.5172.5577-2.3349.6192h-.4159c-.6854 0-1.3471-.1087-2.004-.3261-.7752-.2458-1.4699-.6475-2.0749-1.1722-.5861-.5152-1.054-1.1202-1.3801-1.815-.3214-.6759-.5105-1.4086-.5246-2.1553-.0142-.7421.1087-1.4699.4065-2.1648.2978-.7137.7279-1.3329 1.2809-1.8765l19.7666-20.7406-19.7291-20.7684c-.761-.7846-1.2715-1.7299-1.4558-2.7698-.1985-1.0209-.0804-2.0749.3261-3.0392.4159-.9737 1.1155-1.8292 2.0277-2.4436.9311-.6334 2.0277-1.0115 3.1763-1.0729h.397c.7421 0 1.5172.1371 2.264.4348.8366.3261 1.5787.8366 2.1742 1.4699l23.2925 24.4553c.9737 1.0209 1.4983 2.3397 1.4983 3.7198s-.5388 2.6942-1.5172 3.7151l-23.3542 24.5303zm52.4124 2.0136h-23.0142c-2.7887 0-5.048-2.264-5.048-5.0527s2.2546-5.0527 5.048-5.0527h23.0142c2.7887 0 5.0527 2.264 5.0527 5.0527s-2.264 5.0527-5.0527 5.0527zm7.2033-62.3392c-1.9946 0-3.6111-1.6164-3.6111-3.6111s1.6164-3.6064 3.6111-3.6064c1.9946 0 3.6064 1.607 3.6064 3.6064 0 1.9946-1.607 3.6111-3.6064 3.6111zm10.0487 0c-1.9946 0-3.6064-1.6164-3.6064-3.6111s1.607-3.6064 3.6064-3.6064c1.9946 0 3.6111 1.607 3.6111 3.6064 0 1.9946-1.6164 3.6111-3.6111 3.6111z"/>
</svg>
